<svg width="22" height="25" viewBox="0 0 22 25" fill="none" xmlns="http://www.w3.org/2000/svg">
<g clip-path="url(#clip0_356_761)">
<path d="M11.0049 6.88452C7.88172 6.88452 5.36252 9.3894 5.36252 12.4949C5.36252 15.6003 7.88172 18.1052 11.0049 18.1052C14.1281 18.1052 16.6473 15.6003 16.6473 12.4949C16.6473 9.3894 14.1281 6.88452 11.0049 6.88452ZM11.0049 16.1423C8.98663 16.1423 7.33663 14.5066 7.33663 12.4949C7.33663 10.4832 8.98172 8.84741 11.0049 8.84741C13.0281 8.84741 14.6732 10.4832 14.6732 12.4949C14.6732 14.5066 13.0232 16.1423 11.0049 16.1423ZM18.1942 6.65503C18.1942 7.38257 17.6049 7.96362 16.8781 7.96362C16.1465 7.96362 15.5621 7.37769 15.5621 6.65503C15.5621 5.93237 16.1514 5.34644 16.8781 5.34644C17.6049 5.34644 18.1942 5.93237 18.1942 6.65503ZM21.9313 7.98315C21.8478 6.23023 21.4451 4.67749 20.1536 3.39819C18.867 2.1189 17.3054 1.71851 15.5424 1.63062C13.7255 1.52808 8.27949 1.52808 6.46252 1.63062C4.70449 1.71362 3.14288 2.11401 1.85136 3.39331C0.559843 4.67261 0.162075 6.22534 0.0736816 7.97827C-0.0294434 9.78491 -0.0294434 15.2 0.0736816 17.0066C0.157164 18.7595 0.559843 20.3123 1.85136 21.5916C3.14288 22.8709 4.69957 23.2712 6.46252 23.3591C8.27949 23.4617 13.7255 23.4617 15.5424 23.3591C17.3054 23.2761 18.867 22.8757 20.1536 21.5916C21.4402 20.3123 21.8429 18.7595 21.9313 17.0066C22.0344 15.2 22.0344 9.7898 21.9313 7.98315ZM19.584 18.9451C19.2009 19.9021 18.4594 20.6394 17.492 21.0251C16.0433 21.5964 12.6058 21.4646 11.0049 21.4646C9.40404 21.4646 5.96163 21.5916 4.51788 21.0251C3.55538 20.6443 2.81386 19.907 2.42591 18.9451C1.85136 17.5046 1.98395 14.0867 1.98395 12.4949C1.98395 10.9031 1.85627 7.48023 2.42591 6.04468C2.80895 5.08765 3.55047 4.35034 4.51788 3.9646C5.96654 3.39331 9.40404 3.52515 11.0049 3.52515C12.6058 3.52515 16.0482 3.39819 17.492 3.9646C18.4545 4.34546 19.196 5.08276 19.584 6.04468C20.1585 7.48511 20.0259 10.9031 20.0259 12.4949C20.0259 14.0867 20.1585 17.5095 19.584 18.9451Z" fill="#F17F29"/>
</g>
<defs>
<clipPath id="clip0_356_761">
<rect width="22" height="25" fill="white"/>
</clipPath>
</defs>
</svg>
