<svg width="28" height="25" viewBox="0 0 28 25" fill="none" xmlns="http://www.w3.org/2000/svg">
<path d="M26.7193 6.05874C26.414 4.90396 25.5144 3.99448 24.3722 3.68584C22.3018 3.125 14 3.125 14 3.125C14 3.125 5.69818 3.125 3.62778 3.68584C2.48556 3.99453 1.58597 4.90396 1.28064 6.05874C0.725891 8.15186 0.725891 12.5189 0.725891 12.5189C0.725891 12.5189 0.725891 16.886 1.28064 18.9791C1.58597 20.1339 2.48556 21.0055 3.62778 21.3142C5.69818 21.875 14 21.875 14 21.875C14 21.875 22.3018 21.875 24.3722 21.3142C25.5144 21.0055 26.414 20.1339 26.7193 18.9791C27.2741 16.886 27.2741 12.5189 27.2741 12.5189C27.2741 12.5189 27.2741 8.15186 26.7193 6.05874ZM11.2848 16.4839V8.55396L18.2235 12.519L11.2848 16.4839Z" fill="#F17F29"/>
</svg>
